<svg width="73" height="21" viewBox="0 0 73 21" fill="none" xmlns="http://www.w3.org/2000/svg">
<path d="M10.962 17.9999L12.204 16.7579V11.6999L10.962 10.4399H3.42V7.9199H9.702V9.1799H12.204V6.6779L10.962 5.3999H2.142L0.900002 6.6779V12.0779L2.142 12.9779H9.702V15.4799H3.42V14.2379H0.900002V16.7579L2.142 17.9999H10.962ZM35.6168 5.3999V17.9999H46.3088V15.4799H38.1368V5.3999H35.6168ZM49.9099 11.7179V10.4579L52.4119 7.9199H56.1919V11.7179H49.9099ZM49.9099 17.9999V14.2379H56.1919V17.9999H58.6939V5.3999H51.1519L47.3899 9.1979V17.9999H49.9099ZM63.0098 11.7179V7.9199H69.2918V11.7179H63.0098ZM71.7938 17.9999V15.4799L70.5518 14.2379L71.7938 12.9779V6.6779L70.5518 5.3999H60.4898V17.9999H63.0098V14.2379H66.7718L68.0318 15.4799L69.2918 16.7579V17.9999H71.7938Z" fill="#E5FCFF"/>
<path d="M14.5705 19.3953C15.0875 19.9763 15.8275 20.2363 16.7175 20.2363C17.6925 20.2363 18.8505 19.9173 20.0905 19.3763C21.2545 19.9089 22.5194 20.1854 23.7995 20.1873C25.4258 20.1856 27.0212 19.7425 28.4155 18.9053C29.4311 18.3037 30.3171 17.5064 31.0221 16.5597C31.7271 15.613 32.2371 14.5357 32.5225 13.3903C32.9293 11.7714 32.8728 10.0707 32.3595 8.48232C33.6695 6.24632 34.1125 4.21932 33.0315 3.00232C32.3705 2.25832 31.4515 1.91132 30.4565 2.01932C29.6255 2.10932 28.7705 2.52032 27.9085 3.21032C26.5534 2.50832 25.041 2.16563 23.5157 2.215C21.9904 2.26437 20.5033 2.70416 19.1965 3.49232C18.1806 4.0938 17.2942 4.89103 16.5889 5.83774C15.8835 6.78446 15.3732 7.86182 15.0875 9.00732C14.6422 10.7718 14.749 12.6305 15.3935 14.3323C14.3285 15.5363 13.3395 18.0093 14.5705 19.3953ZM16.0665 18.0673C15.8495 17.8233 16.0695 16.9973 16.4435 16.3073C16.8873 16.9526 17.4134 17.5371 18.0085 18.0463C16.9845 18.3483 16.2965 18.3293 16.0665 18.0673ZM30.5835 12.9023C30.3613 13.7925 29.9646 14.6296 29.4163 15.3652C28.868 16.1008 28.1791 16.7201 27.3895 17.1873C26.3051 17.8387 25.0644 18.1839 23.7995 18.1863C23.3775 18.1863 22.9665 18.1363 22.5625 18.0643C24.1264 17.0974 25.603 15.9959 26.9755 14.7723C28.3865 13.5193 29.6975 12.1463 30.7785 10.7763C30.8235 11.4908 30.7577 12.208 30.5835 12.9023ZM30.6745 4.00532C31.0305 3.97232 31.3065 4.06932 31.5355 4.32832C31.7665 4.58932 31.7045 5.27432 31.2835 6.25732C30.8312 5.56903 30.2872 4.94562 29.6665 4.40432C30.0975 4.14232 30.4425 4.03132 30.6745 4.00532ZM17.0275 9.49532C17.2498 8.60498 17.6467 7.76764 18.1951 7.0319C18.7436 6.29615 19.4327 5.67665 20.2225 5.20932C21.3065 4.55797 22.5468 4.21272 23.8115 4.21032C26.2845 4.21032 28.5205 5.48332 29.7945 7.61532C29.9245 7.83332 30.0395 8.05532 30.1455 8.28232C29.1745 9.72332 27.7125 11.4423 25.6475 13.2763C23.5845 15.1093 21.7055 16.3583 20.1595 17.1523C19.1984 16.5629 18.3945 15.7493 17.8165 14.7813C17.3417 13.9963 17.0276 13.1248 16.8921 12.2174C16.7567 11.31 16.8027 10.3848 17.0275 9.49532Z" fill="#FA167A"/>
</svg>
